<?xml version="1.0" standalone="no"?>
<!DOCTYPE svg PUBLIC "-//W3C//DTD SVG 20010904//EN"
 "http://www.w3.org/TR/2001/REC-SVG-20010904/DTD/svg10.dtd">
<svg version="1.0" xmlns="http://www.w3.org/2000/svg"
 width="272.000000pt" height="272.000000pt" viewBox="0 0 272.000000 272.000000"
 preserveAspectRatio="xMidYMid meet">
<metadata>
Created by potrace 1.14, written by Peter Selinger 2001-2017
</metadata>
<g transform="translate(0.000000,272.000000) scale(0.100000,-0.100000)"
fill="#000000" stroke="none">
<path d="M576 2593 c4 -104 15 -157 45 -220 34 -72 107 -143 167 -162 l41 -14
-21 -51 c-35 -88 -39 -108 -43 -247 l-3 -136 -52 -53 c-32 -33 -66 -82 -87
-126 -96 -202 -24 -418 187 -562 33 -23 63 -42 65 -42 3 0 19 -9 36 -19 31
-19 31 -19 -203 -19 -128 0 -253 -3 -278 -7 -170 -24 -313 -131 -380 -285 -20
-46 -24 -72 -24 -155 0 -93 2 -105 34 -170 62 -130 184 -223 337 -259 93 -21
2205 -18 2247 4 87 45 93 168 10 214 -10 6 -21 12 -24 14 -2 2 -5 91 -5 198
l-1 194 33 23 c89 61 75 175 -27 218 -16 7 -169 11 -427 11 -223 1 -400 5
-397 9 3 5 10 9 15 9 21 0 156 95 201 141 125 129 158 257 114 434 -14 53 -68
137 -125 193 l-38 37 -1 125 c-1 132 -11 198 -42 266 l-18 42 42 16 c125 48
199 180 205 365 3 84 5 83 -69 12 -110 -105 -382 -157 -560 -106 -106 29 -260
25 -362 -11 -30 -10 -66 -13 -132 -9 -200 13 -304 48 -399 136 -29 27 -54 49
-57 49 -3 0 -5 -26 -4 -57z"/>
</g>
</svg>
