<?xml version="1.0" encoding="UTF-8"?>
<svg width="254px" height="66px" viewBox="0 0 254 66" version="1.1" xmlns="http://www.w3.org/2000/svg" xmlns:xlink="http://www.w3.org/1999/xlink">
    <title>Group3</title>
    <g id="Page-1" stroke="none" stroke-width="1" fill="none" fill-rule="evenodd">
        <g id="Group3" transform="translate(0.488380, 0.502810)" fill-rule="nonzero">
            <path d="M12.10702,48.23799 C10.42862,48.23779 8.81742,48.83809 7.62102,49.90939 C6.42456,50.98069 5.7388,52.43709 5.71164,53.96449 C5.69791,54.73679 5.85319,55.50379 6.16843,56.22089 C6.48367,56.93809 6.95262,57.59089 7.54782,58.14139 C8.14302,58.69189 8.85272,59.12909 9.63542,59.42749 C10.41822,59.72589 11.25832,59.87939 12.10702,59.87939 C12.10702,59.87939 63.95362,59.86569 63.95362,59.84979 L63.95362,48.26759 C63.95362,48.25069 12.10702,48.23799 12.10702,48.23799 Z" id="Path" fill="#FFFFFF"></path>
            <path d="M33.72102,44.00469 C43.99612,44.00469 52.32572,38.31879 52.32572,31.30489 C52.32572,24.29109 43.99612,18.60519 33.72102,18.60519 C23.44592,18.60519 15.11632,24.29109 15.11632,31.30489 C15.11632,38.31879 23.44592,44.00469 33.72102,44.00469 Z" id="Path" fill="#9A5706"></path>
            <path d="M33.45932,4.84919 C29.74962,4.98289 26.24362,6.42839 23.68672,8.87829 C21.12972,11.32819 19.72372,14.58929 19.76752,17.96809 L19.76752,22.83839 C21.16512,23.47439 22.34052,24.45209 23.16202,25.66179 C23.98352,26.87159 24.41862,28.26569 24.41862,29.68779 L24.41862,35.24819 C24.38752,37.43329 25.26522,39.54829 26.87572,41.16899 C28.48632,42.78969 30.71052,43.79619 33.10242,43.98669 C34.37332,44.06379 35.64812,43.90249 36.84782,43.51279 C38.04752,43.12309 39.14642,42.51339 40.07662,41.72129 C41.00672,40.92919 41.74822,39.97169 42.25512,38.90809 C42.76192,37.84449 43.02342,36.69749 43.02332,35.53819 L43.02332,29.68779 C43.02332,28.26569 43.45852,26.87159 44.28002,25.66179 C45.10152,24.45209 46.27692,23.47439 47.67452,22.83839 L47.67452,17.54689 C47.67452,15.85899 47.30492,14.18819 46.58722,12.63189 C45.86952,11.07559 44.81822,9.66509 43.49472,8.48289 C42.17122,7.30069 40.60202,6.37039 38.87902,5.74649 C37.15592,5.12259 35.31352,4.81755 33.45932,4.84919 Z" id="Path" fill="#C68C47"></path>
            <path d="M44.90012,10.77469 C42.78042,10.78409 40.68722,11.20409 38.75972,12.00679 C36.83222,12.80949 35.11462,13.97649 33.72102,15.43019 C33.72102,15.43019 34.21632,5.90539 41.71752,5.90539 C49.14312,5.90539 52.32572,2.73045 52.32572,2.73045 C52.32572,2.73045 52.32572,10.77469 44.90012,10.77469 Z M22.54192,10.77469 C24.66162,10.78409 26.75472,11.20409 28.68222,12.00679 C30.60982,12.80949 32.32742,13.97649 33.72102,15.43019 C33.72102,15.43019 33.22562,5.90539 25.72452,5.90539 C18.29892,5.90539 15.11632,2.73045 15.11632,2.73045 C15.11632,2.73045 15.11632,10.77469 22.54192,10.77469 Z" id="Shape" fill="#9A5706"></path>
            <path d="M40.69772,20.72179 C40.23782,20.72179 39.78812,20.59769 39.40572,20.36509 C39.02332,20.13249 38.72522,19.80189 38.54922,19.41519 C38.37322,19.02839 38.32712,18.60279 38.41682,18.19219 C38.50662,17.78169 38.72812,17.40449 39.05332,17.10849 C39.37852,16.81249 39.79292,16.61089 40.24402,16.52919 C40.69522,16.44749 41.16272,16.48949 41.58772,16.64969 C42.01262,16.80989 42.37592,17.08119 42.63142,17.42919 C42.88692,17.77729 43.02332,18.18649 43.02332,18.60519 C43.02272,19.16639 42.77752,19.70439 42.34152,20.10119 C41.90552,20.49809 41.31432,20.72119 40.69772,20.72179 Z M26.74422,20.72179 C26.28432,20.72179 25.83462,20.59769 25.45222,20.36509 C25.06972,20.13249 24.77172,19.80189 24.59572,19.41519 C24.41962,19.02839 24.37362,18.60279 24.46332,18.19219 C24.55302,17.78169 24.77452,17.40449 25.09982,17.10849 C25.42502,16.81249 25.83942,16.61089 26.29052,16.52919 C26.74162,16.44749 27.20922,16.48949 27.63422,16.64969 C28.05912,16.80989 28.42232,17.08119 28.67792,17.42919 C28.93342,17.77729 29.06982,18.18649 29.06982,18.60519 C29.06922,19.16639 28.82402,19.70439 28.38802,20.10119 C27.95202,20.49809 27.36082,20.72119 26.74422,20.72179 Z" id="Shape" fill="#FFFFFF"></path>
            <path d="M5.60815,54.05869 C5.60815,52.51489 6.28194,51.03439 7.48132,49.94279 C8.68062,48.85119 10.30732,48.23799 12.00352,48.23799 L63.95362,48.23799 C64.57042,48.23799 65.16192,48.01499 65.59802,47.61799 C66.03422,47.22109 66.27922,46.68269 66.27922,46.12129 C66.27922,45.55999 66.03422,45.02159 65.59802,44.62469 C65.16192,44.22769 64.57042,44.00469 63.95362,44.00469 L12.20932,44.00469 C9.27962,44.00469 6.46987,45.06399 4.39824,46.94949 C2.32662,48.83489 1.16279,51.39219 1.16279,54.05869 C1.16279,56.72519 2.32662,59.28249 4.39824,61.16789 C6.46987,63.05339 9.27962,64.11269 12.20932,64.11269 L63.95362,64.11269 C64.57042,64.11269 65.16192,63.88969 65.59802,63.49269 C66.03422,63.09579 66.27922,62.55739 66.27922,61.99609 C66.27922,61.43469 66.03422,60.89629 65.59802,60.49939 C65.16192,60.10239 64.57042,59.87939 63.95362,59.87939 L12.00352,59.87939 C10.30732,59.87939 8.68062,59.26619 7.48132,58.17459 C6.28194,57.08299 5.60815,55.60249 5.60815,54.05869 Z" id="Path" fill="#DB3A3A"></path>
            <path d="M65.11642,59.01579 L65.11642,49.10159 C65.89162,48.85299 66.54522,48.36279 66.96132,47.71779 C67.37752,47.07269 67.52942,46.31439 67.39012,45.57719 C67.25082,44.83999 66.82942,44.17139 66.20042,43.68989 C65.57142,43.20839 64.77552,42.94499 63.95362,42.94639 L44.18842,42.94639 C49.77912,40.50699 53.48852,36.19119 53.48852,31.30489 C53.44102,29.61689 53.00222,27.95689 52.20062,26.43399 C51.39902,24.91109 50.25292,23.55959 48.83732,22.46799 L48.83732,17.54689 C48.83412,15.46639 48.30912,13.41399 47.30242,11.54619 C52.12682,10.32489 53.48852,5.46831 53.48852,2.73045 L53.48262,0.0635 L51.47222,2.01079 C51.35242,2.12721 48.46872,4.84708 41.71752,4.84708 C41.12342,4.85259 40.53172,4.91825 39.95352,5.04286 C37.91262,4.18586 35.68582,3.75795 33.43842,3.79088 C31.40102,3.83125 29.39602,4.26294 27.55472,5.05768 C26.95562,4.92341 26.34142,4.85274 25.72442,4.84708 C18.97332,4.84708 16.08952,2.12721 15.97562,2.01714 L13.95352,0 L13.95352,2.73045 C13.95352,5.49265 15.33612,10.40959 20.25822,11.57799 C19.17292,13.56339 18.60702,15.75049 18.60472,17.96809 L18.60472,22.46909 C17.18922,23.56049 16.04312,24.91189 15.24162,26.43459 C14.44002,27.95729 14.00112,29.61699 13.95352,31.30489 C13.95352,36.19329 17.66512,40.50909 23.26172,42.94639 L12.20932,42.94639 C8.97122,42.94639 5.86572,44.11719 3.57603,46.20109 C1.28634,48.28509 -7.10542736e-15,51.11149 -7.10542736e-15,54.05869 C-7.10542736e-15,57.00589 1.28634,59.83229 3.57603,61.91629 C5.86572,64.00019 8.97122,65.1709956 12.20932,65.1709956 L63.95362,65.1709956 C64.77552,65.17239 65.57142,64.90899 66.20042,64.42749 C66.82942,63.94599 67.25082,63.27739 67.39012,62.54019 C67.52942,61.80299 67.37752,61.04469 66.96132,60.39959 C66.54522,59.75459 65.89162,59.26439 65.11642,59.01579 Z M62.79082,54.58789 L52.32572,54.58789 L52.32572,56.70449 L62.79082,56.70449 L62.79082,58.82109 L12.00352,58.82109 C10.61572,58.82109 9.28482,58.31939 8.30352,57.42619 C7.32222,56.53309 6.77092,55.32179 6.77092,54.05869 C6.77092,52.79559 7.32222,51.58429 8.30352,50.69119 C9.28482,49.79799 10.61572,49.29629 12.00352,49.29629 L62.79082,49.29629 L62.79082,54.58789 Z M20.93032,22.21189 L20.93032,17.96809 C20.93232,15.81669 21.55542,13.70359 22.73722,11.84039 C24.64502,11.88239 26.52292,12.28059 28.25472,13.01019 C29.98652,13.73989 31.53512,14.78539 32.80472,16.08209 L33.72102,17.15099 L34.63732,16.08209 C35.91412,14.76619 37.47992,13.70839 39.23352,12.97709 C40.98722,12.24569 42.88982,11.85709 44.81872,11.83619 C45.91772,13.57389 46.50122,15.54189 46.51172,17.54689 L46.51172,22.21189 C45.08912,22.98229 43.91192,24.07709 43.09622,25.38819 C42.28052,26.69919 41.85462,28.18119 41.86052,29.68779 L41.86052,35.53819 C41.86052,36.55279 41.63142,37.55659 41.18772,38.48729 C40.74392,39.41799 40.09482,40.25589 39.28072,40.94899 C38.46652,41.64199 37.50472,42.17549 36.45472,42.51639 C35.40482,42.85719 34.28912,42.99819 33.17682,42.93049 C31.07752,42.76279 29.12622,41.87669 27.71662,40.45099 C26.30692,39.02519 25.54392,37.16589 25.58142,35.24819 L25.58142,29.68779 C25.58732,28.18119 25.16142,26.69919 24.34582,25.38819 C23.53012,24.07709 22.35282,22.98229 20.93032,22.21189 Z M51.16292,31.30489 C51.16292,35.75199 47.36632,39.64759 41.78032,41.59809 C43.32882,39.89249 44.17912,37.75069 44.18612,35.53819 L44.18612,29.68779 C44.18302,28.59499 44.48032,27.51869 45.05102,26.55709 C45.62172,25.59559 46.44762,24.77919 47.45362,24.18249 C48.57772,25.07299 49.48752,26.16529 50.12582,27.39099 C50.76412,28.61669 51.11722,29.94919 51.16292,31.30489 Z M50.82572,5.02276 C50.26982,7.06109 48.79772,9.71639 44.90012,9.71639 C41.49182,9.71519 38.17352,10.71149 35.43492,12.55799 C36.17212,10.08149 37.86752,6.96369 41.71752,6.96369 C44.88612,7.03759 48.02242,6.36919 50.82572,5.02276 Z M33.48142,5.90749 C34.65802,5.88849 35.83142,6.02249 36.96632,6.30539 C35.48452,7.41049 34.36232,8.86289 33.72102,10.50589 C33.08152,8.86769 31.96452,7.41869 30.48962,6.31389 C31.46412,6.06429 32.46932,5.92779 33.48142,5.90749 Z M16.62562,5.02805 C19.42682,6.37079 22.55952,7.03729 25.72442,6.96369 C29.57452,6.96369 31.26982,10.08259 32.00702,12.55799 C29.26842,10.71149 25.95012,9.71519 22.54192,9.71639 C18.66752,9.71639 17.18952,7.06639 16.62562,5.02805 Z M16.27912,31.30489 C16.32482,29.94919 16.67782,28.61669 17.31622,27.39099 C17.95452,26.16529 18.86432,25.07299 19.98842,24.18249 C20.99442,24.77919 21.82032,25.59559 22.39102,26.55709 C22.96172,27.51869 23.25902,28.59499 23.25582,29.68779 L23.25582,35.24819 C23.25292,37.57329 24.14302,39.82619 25.77212,41.61719 C20.12792,39.68359 16.27912,35.77949 16.27912,31.30489 Z M63.95362,63.05439 L12.20932,63.05439 C9.58802,63.05439 7.07402,62.10659 5.22047,60.41959 C3.36691,58.73259 2.32559,56.44449 2.32559,54.05869 C2.32559,51.67289 3.36691,49.38479 5.22047,47.69779 C7.07402,46.01079 9.58802,45.06299 12.20932,45.06299 L63.95362,45.06299 C64.26202,45.06299 64.55772,45.17449 64.77582,45.37299 C64.99392,45.57149 65.11642,45.84069 65.11642,46.12129 C65.11642,46.40199 64.99392,46.67119 64.77582,46.86969 C64.55772,47.06819 64.26202,47.17969 63.95362,47.17969 L12.00352,47.17969 C9.99892,47.17969 8.07652,47.90439 6.65912,49.19449 C5.24166,50.48459 4.44536,52.23429 4.44536,54.05869 C4.44536,55.88309 5.24166,57.63279 6.65912,58.92289 C8.07652,60.21299 9.99892,60.93769 12.00352,60.93769 L63.95362,60.93769 C64.26202,60.93769 64.55772,61.04919 64.77582,61.24769 C64.99392,61.44619 65.11642,61.71539 65.11642,61.99609 C65.11642,62.27669 64.99392,62.54589 64.77582,62.74439 C64.55772,62.94289 64.26202,63.05439 63.95362,63.05439 Z" id="Shape" fill="#000000"></path>
            <path d="M32.55822,20.72179 L34.88382,20.72179 L34.88382,24.95509 L32.55822,24.95509 L32.55822,20.72179 Z M40.69772,21.78009 C41.38772,21.78009 42.06212,21.59389 42.63582,21.24499 C43.20942,20.89619 43.65662,20.40029 43.92062,19.82019 C44.18462,19.23999 44.25372,18.60169 44.11912,17.98579 C43.98452,17.36989 43.65232,16.80419 43.16442,16.36009 C42.67652,15.91609 42.05502,15.61369 41.37832,15.49119 C40.70162,15.36869 40.00022,15.43159 39.36282,15.67189 C38.72542,15.91219 38.18062,16.31919 37.79732,16.84129 C37.41402,17.36339 37.20942,17.97719 37.20942,18.60519 C37.21032,19.44699 37.57812,20.25399 38.23212,20.84929 C38.88612,21.44449 39.77282,21.77929 40.69772,21.78009 Z M40.69772,17.54689 C40.92772,17.54689 41.15252,17.60889 41.34382,17.72519 C41.53502,17.84149 41.68402,18.00679 41.77202,18.20019 C41.86002,18.39359 41.88312,18.60629 41.83822,18.81159 C41.79332,19.01689 41.68262,19.20549 41.52002,19.35349 C41.35732,19.50149 41.15012,19.60229 40.92462,19.64319 C40.69902,19.68399 40.46522,19.66299 40.25282,19.58289 C40.04032,19.50279 39.85872,19.36719 39.73092,19.19309 C39.60312,19.01909 39.53492,18.81449 39.53492,18.60519 C39.53532,18.32459 39.65792,18.05559 39.87592,17.85709 C40.09392,17.65869 40.38942,17.54709 40.69772,17.54689 Z M30.23262,18.60519 C30.23262,17.97719 30.02802,17.36339 29.64472,16.84129 C29.26142,16.31919 28.71662,15.91219 28.07922,15.67189 C27.44172,15.43159 26.74042,15.36869 26.06372,15.49119 C25.38702,15.61369 24.76542,15.91609 24.27762,16.36009 C23.78972,16.80419 23.45752,17.36989 23.32292,17.98579 C23.18832,18.60169 23.25742,19.23999 23.52142,19.82019 C23.78542,20.40029 24.23252,20.89619 24.80622,21.24499 C25.37982,21.59389 26.05432,21.78009 26.74422,21.78009 C27.66912,21.77929 28.55592,21.44449 29.20992,20.84929 C29.86392,20.25399 30.23172,19.44699 30.23262,18.60519 Z M25.58142,18.60519 C25.58142,18.39589 25.64962,18.19119 25.77742,18.01719 C25.90522,17.84319 26.08682,17.70749 26.29922,17.62739 C26.51172,17.54729 26.74552,17.52639 26.97112,17.56719 C27.19662,17.60799 27.40382,17.70879 27.56642,17.85679 C27.72912,18.00479 27.83982,18.19339 27.88472,18.39869 C27.92952,18.60399 27.90652,18.81679 27.81852,19.01019 C27.73052,19.20359 27.58152,19.36879 27.39022,19.48509 C27.19902,19.60139 26.97422,19.66349 26.74422,19.66349 C26.43592,19.66319 26.14032,19.55159 25.92232,19.35319 C25.70432,19.15479 25.58172,18.88579 25.58142,18.60519 Z M43.02332,51.41289 L48.83732,51.41289 L48.83732,53.52949 L43.02332,53.52949 L43.02332,51.41289 Z M15.11632,54.58789 L37.20942,54.58789 L37.20942,56.70449 L15.11632,56.70449 L15.11632,54.58789 Z" id="Shape" fill="#000000"></path>
            <path d="M98.43862,43.99229 L98.43862,46.49719 L94.19032,46.49719 L94.19032,43.99229 C90.76262,43.86539 88.34072,43.02059 86.92472,41.45809 C85.51842,39.88589 84.81532,37.92299 84.81532,35.56949 C84.81532,33.08899 85.55262,31.10169 87.02722,29.60759 C88.50182,28.10359 90.88952,27.28819 94.19032,27.16129 L94.19032,25.03719 L98.43862,25.03719 L98.43862,27.16129 C101.84662,27.28819 104.25862,28.12809 105.67462,29.68079 C107.10062,31.23349 107.81362,33.20129 107.81362,35.58409 C107.81362,37.94739 107.10562,39.91029 105.68962,41.47279 C104.27362,43.02549 101.85662,43.86539 98.43862,43.99229 Z M98.43862,40.37419 C99.57162,40.37419 100.54262,40.18369 101.35362,39.80289 C102.17362,39.42199 102.75462,38.90929 103.09662,38.26479 C103.43862,37.62019 103.60962,36.67789 103.60962,35.43759 C103.60962,32.33219 101.88562,30.77939 98.43862,30.77939 L98.43862,40.37419 Z M94.19032,40.37419 L94.19032,30.77939 C92.36412,30.77939 91.04582,31.18959 90.23522,32.00989 C89.42472,32.82039 89.01942,34.05089 89.01942,35.70129 C89.01942,38.81649 90.74302,40.37419 94.19032,40.37419 Z M111.35862,25.02259 L115.41562,25.02259 L115.41562,39.31949 L124.11662,25.02259 L128.43862,25.02259 L128.43862,46.49719 L124.38062,46.49719 L124.38062,32.47859 L115.69462,46.49719 L111.35862,46.49719 L111.35862,25.02259 Z M132.87662,46.49719 L132.87662,25.02259 L137.21262,25.02259 L137.21262,33.47469 L145.70862,33.47469 L145.70862,25.02259 L150.04462,25.02259 L150.04462,46.49719 L145.70862,46.49719 L145.70862,37.10759 L137.21262,37.10759 L137.21262,46.49719 L132.87662,46.49719 Z M168.28262,38.60169 L172.48662,39.93469 C171.84162,42.27839 170.76762,44.02159 169.26362,45.16419 C167.76962,46.29699 165.86962,46.86339 163.56562,46.86339 C160.71362,46.86339 158.36962,45.89169 156.53362,43.94839 C154.69862,41.99519 153.78062,39.32919 153.78062,35.95029 C153.78062,32.37609 154.70262,29.60269 156.54862,27.62999 C158.39462,25.64759 160.82162,24.65639 163.82862,24.65639 C166.45562,24.65639 168.58962,25.43269 170.23062,26.98549 C171.20662,27.90339 171.93962,29.22179 172.42762,30.94059 L168.13562,31.96599 C167.88162,30.85269 167.34962,29.97379 166.53862,29.32919 C165.73862,28.68469 164.76162,28.36239 163.60962,28.36239 C162.01762,28.36239 160.72362,28.93369 159.72762,30.07629 C158.74062,31.21889 158.24762,33.06949 158.24762,35.62809 C158.24762,38.34289 158.73662,40.27649 159.71262,41.42879 C160.68962,42.58119 161.95862,43.15739 163.52162,43.15739 C164.67362,43.15739 165.66462,42.79109 166.49462,42.05869 C167.32462,41.32629 167.92062,40.17399 168.28262,38.60169 Z M176.44162,25.02259 L190.98762,25.02259 L190.98762,28.62609 L180.77762,28.62609 L180.77762,46.49719 L176.44162,46.49719 L176.44162,25.02259 Z M193.24262,46.49719 L193.24262,25.02259 L200.20062,25.02259 C202.83762,25.02259 204.55662,25.12999 205.35762,25.34489 C206.58762,25.66709 207.61762,26.37019 208.44862,27.45419 C209.27862,28.52839 209.69362,29.92009 209.69362,31.62899 C209.69362,32.94739 209.45362,34.05579 208.97562,34.95419 C208.49662,35.85269 207.88662,36.56069 207.14462,37.07829 C206.41162,37.58609 205.66462,37.92299 204.90362,38.08899 C203.86762,38.29409 202.36862,38.39659 200.40662,38.39659 L197.57862,38.39659 L197.57862,46.49719 L193.24262,46.49719 Z M197.57862,28.65539 L197.57862,34.74919 L199.95162,34.74919 C201.66062,34.74919 202.80362,34.63679 203.37962,34.41219 C203.95562,34.18759 204.40562,33.83609 204.72762,33.35759 C205.05962,32.87899 205.22562,32.32239 205.22562,31.68759 C205.22562,30.90639 204.99562,30.26179 204.53662,29.75399 C204.07762,29.24619 203.49662,28.92879 202.79362,28.80189 C202.27662,28.70419 201.23662,28.65539 199.67362,28.65539 L197.57862,28.65539 Z M229.98162,46.49719 L225.26462,46.49719 L223.38962,41.61929 L214.80562,41.61929 L213.03262,46.49719 L208.43362,46.49719 L216.79762,25.02259 L221.38262,25.02259 L229.98162,46.49719 Z M221.99762,38.00109 L219.03862,30.03239 L216.13862,38.00109 L221.99762,38.00109 Z M232.23762,46.49719 L232.23762,25.02259 L238.72662,25.02259 L242.62262,39.67099 L246.47562,25.02259 L252.97962,25.02259 L252.97962,46.49719 L248.95062,46.49719 L248.95062,29.59289 L244.68862,46.49719 L240.51362,46.49719 L236.26562,29.59289 L236.26562,46.49719 L232.23762,46.49719 Z" id="Shape" fill="#FFFFFF"></path>
        </g>
    </g>
</svg>