<svg width="448" height="375" viewBox="0 0 448 375" fill="none" xmlns="http://www.w3.org/2000/svg">
<path d="M287.047 268.316C238.512 313.16 186.252 344.718 141.012 359.505C95.7276 374.305 57.6757 372.246 37.3062 350.199C16.9367 328.153 17.8872 290.057 36.2161 246.083C54.5274 202.152 90.1142 152.546 138.649 107.703C187.185 62.8577 239.445 31.299 284.684 16.5122C329.969 1.71188 368.021 3.77107 388.391 25.818C408.76 47.8648 407.809 85.9601 389.48 129.936C371.169 173.866 335.583 223.471 287.047 268.316Z" stroke="#6F3689"/>
<path d="M380.405 75.2262L399.775 102.161L427.584 84.0683L400.65 103.439L418.742 131.247L399.372 104.313L371.563 122.405L398.498 103.035L380.405 75.2262Z" fill="#FDC949"/>
<path d="M402.853 85.7353L400.477 102.618L417.075 106.517L400.192 104.141L396.293 120.738L398.67 103.855L382.072 99.9571L398.955 102.333L402.853 85.7353Z" fill="#FDC949"/>
</svg>
