<?xml version="1.0" encoding="UTF-8"?>
<svg width="2650px" height="1684px" viewBox="0 0 2650 1684" version="1.1" xmlns="http://www.w3.org/2000/svg" xmlns:xlink="http://www.w3.org/1999/xlink">
    <title>wave</title>
    <g id="Page-1" stroke="none" stroke-width="1" fill="none" fill-rule="evenodd" opacity="0.121286301" stroke-linecap="round">
        <g id="wave" transform="translate(-130.125619, -296.151834)" stroke="#6F3689" stroke-width="100">
            <path d="M242.487623,752.949905 L1181.40862,299.057006 C1277.15162,252.772206 1376.37662,393.574905 1314.37062,487.732905 L1195.63762,668.028905 C1136.84562,757.304905 1223.74862,893.015905 1318.98162,860.647905 L1828.89662,687.328905 C1925.43662,654.517905 2012.47662,793.868905 1950.66662,882.277905 L1533.75762,1478.47391 C1471.02562,1568.19391 1561.40662,1709.06391 1658.22162,1672.45391 L2007.59662,1540.35391 C2100.19662,1505.33391 2189.83662,1634.34391 2136.97662,1726.55391 L2062.94662,1855.73391 C2013.03662,1942.83391 2090.82662,2066.69391 2181.89662,2045.13391 L2791.70662,1900.78391 C2882.92662,1879.18391 2960.73662,2003.45391 2910.47662,2090.48391 L2598.3109,2624.17026" id="Path" transform="translate(1584.381558, 1457.067926) rotate(-14.000000) translate(-1584.381558, -1457.067926) "></path>
        </g>
    </g>
</svg>