<?xml version="1.0" encoding="UTF-8"?>
<svg width="2756px" height="2937px" viewBox="0 0 2756 2937" version="1.1" xmlns="http://www.w3.org/2000/svg" xmlns:xlink="http://www.w3.org/1999/xlink">
    <title>Group</title>
    <g id="Page-1" stroke="none" stroke-width="1" fill="none" fill-rule="evenodd" stroke-opacity="0.12">
        <g id="Group" transform="translate(22.000000, 51.000000)" stroke="#6F3689" stroke-width="100">
            <path d="M0,462.984308 L938.921,9.09140842 C1034.664,-37.1933916 1133.889,103.609308 1071.883,197.767308 L953.15,378.063308 C894.358,467.339308 981.261,603.050308 1076.494,570.682308 L1586.409,397.363308 C1682.949,364.552308 1769.989,503.903308 1708.179,592.312308 L1291.27,1188.50831 C1228.538,1278.22831 1318.919,1419.09831 1415.734,1382.48831 L1765.109,1250.38831 C1857.709,1215.36831 1947.349,1344.37831 1894.489,1436.58831 L1820.459,1565.76831 C1770.549,1652.86831 1848.339,1776.72831 1939.409,1755.16831 L2549.219,1610.81831 C2640.439,1589.21831 2718.249,1713.48831 2667.989,1800.51831 L2056.009,2860.30831" id="Path"></path>
        </g>
    </g>
</svg>